<?xml version="1.0" encoding="UTF-8"?>
<!DOCTYPE svg PUBLIC "-//W3C//DTD SVG 1.1//EN" "http://www.w3.org/Graphics/SVG/1.1/DTD/svg11.dtd">
<!-- Creator: CorelDRAW X8 -->
<svg xmlns="http://www.w3.org/2000/svg" xml:space="preserve" width="279.4mm" height="70mm" version="1.1" style="shape-rendering:geometricPrecision; text-rendering:geometricPrecision; image-rendering:optimizeQuality; fill-rule:evenodd; clip-rule:evenodd"
viewBox="0 0 27940 7000"
 xmlns:xlink="http://www.w3.org/1999/xlink">
 <defs>
  <style type="text/css">
   <![CDATA[
    .fil0 {fill:white}
    .fil1 {fill:black;fill-rule:nonzero}
    .fil2 {fill:red;fill-rule:nonzero}
   ]]>
  </style>
 </defs>
 <g id="Capa_x0020_1">
  <metadata id="CorelCorpID_0Corel-Layer"/>
  <g id="_597754128">
   <path class="fil0" d="M9104 4940l1070 -3651 -311 0c-56,0 -104,-29 -131,-78 -27,-49 -26,-105 4,-153l588 -926c29,-45 74,-70 127,-70l2090 0c248,0 490,69 638,282 140,203 142,440 74,671l-1507 5117c-41,143 -103,279 -199,394 -83,100 -180,184 -293,249 -109,61 -226,104 -349,128 -118,23 -238,35 -358,35l-1828 0c-49,0 -91,-21 -120,-60 -29,-39 -38,-85 -24,-132l105 -358c-56,151 -145,282 -273,383 -164,130 -379,167 -583,167l-1821 0c-49,0 -91,-21 -120,-60 -29,-39 -38,-86 -24,-132l86 -293 -139 386c-22,61 -77,99 -142,99l-1795 0c-49,0 -91,-21 -120,-60 -30,-39 -38,-86 -24,-132l1236 -4201 -1881 4303c-25,56 -77,90 -138,90l-965 0c-45,0 -85,-18 -114,-53 -30,-35 -41,-76 -34,-121l234 -1438 -585 1516c-23,59 -77,96 -140,96l-984 0c-45,0 -83,-18 -113,-51 -29,-34 -42,-74 -36,-119l869 -6576c10,-75 73,-130 149,-130l1099 0c46,0 85,18 114,53 30,34 42,76 34,121l-308 1934 794 -2013c23,-58 77,-95 140,-95l843 0c46,0 85,18 114,53 30,34 41,76 34,121l-299 1879 752 -1957c23,-59 77,-96 140,-96l1138 0c52,0 97,24 125,68 29,44 33,94 12,142l-754 1724c12,-3 23,-4 35,-4l1828 0c49,0 91,21 120,60 21,28 31,58 30,90l13 -42c19,-65 76,-108 144,-108l1732 0c216,0 449,52 564,255 97,169 99,358 46,543 0,0 0,1 0,1l-408 1398c-34,125 -118,225 -218,304 -18,15 -37,27 -57,39 13,19 24,38 33,59 34,74 49,154 49,235 0,38 -3,76 -8,114zm-2157 -1890c-26,49 -75,79 -132,79l-744 0 -212 723 636 0c49,0 91,21 120,60 30,39 38,85 24,132l-243 824c-19,65 -76,108 -144,108l-725 0 -230 780 687 0c50,0 94,23 123,64 6,9 12,19 16,29l824 -2799zm1190 889c9,-14 19,-44 23,-57l249 -842 -185 0 -269 908 112 0c17,0 52,-2 70,-9zm-557 1920c7,-13 14,-36 18,-46l274 -933c1,-3 2,-8 3,-13l-188 0 -294 998 144 0c13,0 29,-1 43,-6zm4203 -4567c-14,-3 -32,-3 -41,-3l-188 0c0,15 -2,30 -7,46l-1292 4376 183 0c44,0 55,-19 67,-58l1272 -4333c2,-6 5,-18 6,-28zm9617 4500l952 -3236c42,-163 127,-302 259,-407 141,-111 309,-157 487,-157l1393 0c188,0 351,71 455,231 97,150 114,319 66,490 0,1 0,1 0,2l-1067 3623c-1,1 -1,2 -1,2 -63,204 -178,384 -374,480 -162,80 -336,118 -517,118l-1144 0c-96,0 -191,-16 -280,-53 -90,-36 -168,-93 -230,-169 -63,-78 -101,-169 -120,-268 -2,-13 -4,-26 -6,-40l-163 433c-22,59 -77,97 -140,97l-2007 0c-43,0 -80,-16 -108,-46 -28,28 -66,46 -109,46l-959 0c-46,0 -85,-18 -115,-54 -29,-35 -40,-77 -32,-122l116 -661 -353 0 -294 742c-23,59 -77,95 -140,95l-1003 0c-52,0 -97,-24 -126,-68 -28,-44 -32,-95 -11,-142l2038 -4646c25,-56 77,-90 138,-90l1374 0c44,0 83,18 113,51 29,34 41,75 35,119l-552 4054 1212 -4116c19,-65 76,-108 144,-108l1029 0c48,0 90,21 120,60 29,39 37,85 24,132l-1050 3572 848 0c38,0 71,12 98,36zm-3384 -1263l-231 575 132 0 99 -575zm5471 -1489c-1,0 -1,1 -1,1 0,2 -1,4 -1,6l-834 2818 172 0c2,0 5,0 7,-1 1,-1 2,-3 2,-5 0,0 0,-1 1,-2l829 -2817 -174 0c-1,0 -1,0 -1,0zm3514 1613c86,146 58,331 11,484l-498 1693c-19,65 -77,108 -144,108l-965 0c-49,0 -91,-21 -120,-60 -30,-39 -38,-86 -24,-132l527 -1789 -156 0 -550 1873c-19,65 -76,108 -144,108l-965 0c-49,0 -91,-21 -120,-60 -29,-39 -37,-86 -24,-132l1368 -4646c19,-65 76,-108 144,-108l1757 0c215,0 433,57 550,251 101,165 110,348 54,529l-466 1579c0,1 -1,1 -1,2 -32,102 -96,187 -176,257 -18,16 -38,31 -58,43zm-616 -1613c-1,0 -2,0 -2,0l-189 0 -275 933 131 0c21,0 38,-5 54,-13 10,-10 22,-45 26,-58l255 -862zm-11358 -1008c26,-25 62,-40 102,-40l965 0c46,0 85,18 114,53 30,35 41,77 34,122l-139 819 363 -900c23,-58 77,-94 139,-94l991 0c52,0 97,24 125,68 29,44 33,95 12,142l-2039 4646c-24,56 -76,90 -137,90l-1042 0c-44,0 -83,-18 -112,-51 -30,-34 -42,-74 -36,-119l528 -4002 -76 256c-19,65 -76,107 -144,107l-744 0 -212 723 637 0c48,0 90,21 120,60 29,39 37,85 23,132l-242 824c-19,65 -77,108 -144,108l-725 0 -231 780 687 0c51,0 94,23 123,64 29,41 36,90 18,137l-319 882c-22,61 -77,99 -141,99l-1796 0c-49,0 -91,-21 -120,-60 -29,-39 -38,-86 -24,-132l1368 -4646c19,-65 76,-108 144,-108l1827 0c40,0 75,14 103,40z"/>
  </g>
  <g id="_597748144">
   <path class="fil1" d="M1223 212l1099 0 -524 3291 1298 -3291 843 0 -524 3291 1265 -3291 1138 0 -2876 6576 -965 0 467 -2863 -1106 2863 -984 0 869 -6576zm4013 1930l1828 0 -249 837 -857 0 -300 1023 837 0 -243 824 -837 0 -319 1080 888 0 -320 882 -1795 0 1367 -4646zm2831 1956c64,0 114,-11 151,-32 36,-22 64,-69 86,-141l249 -844c21,-59 23,-106 6,-140 -17,-34 -61,-51 -134,-51l-313 0 -358 1208 313 0zm-696 -1956l1732 0c221,0 366,60 434,179 68,119 79,262 32,428l-409 1400c-21,81 -77,156 -166,227 -90,70 -215,101 -377,92 81,4 147,24 198,58 51,34 88,76 112,127 23,52 35,109 35,173 0,64 -9,126 -26,185l-383 1285c-47,149 -127,268 -240,358 -113,89 -275,134 -489,134l-1821 0 1368 -4646zm166 3873c47,0 87,-9 121,-26 34,-17 62,-62 83,-134l275 -933c17,-60 17,-109 0,-147 -17,-38 -62,-58 -134,-58l-307 0 -383 1298 345 0zm10870 -2863l-843 2102 479 0 364 -2102zm-2441 3636l2039 -4646 1374 0 -633 4646 -959 0 147 -837 -632 0 -333 837 -1003 0zm4365 -4646l1029 0 -1106 3764 1048 0 -332 882 -2007 0 1368 -4646zm3157 748c-47,0 -81,10 -103,32 -21,21 -36,49 -44,83l-857 2895c-21,76 9,115 90,115l249 0c81,0 132,-39 153,-115l850 -2889c22,-81 -10,-121 -96,-121l-242 0zm1003 -748c149,0 259,54 329,163 70,109 86,231 48,367l-1067 3624c-60,192 -159,322 -297,390 -139,68 -289,102 -451,102l-1144 0c-81,0 -155,-14 -223,-42 -69,-27 -125,-69 -170,-124 -45,-56 -74,-123 -89,-202 -15,-78 -8,-167 22,-265l1048 -3559c34,-137 103,-246 208,-329 104,-83 235,-125 393,-125l1393 0zm447 4646l-965 0 1368 -4646 1757 0c209,0 350,60 422,179 73,119 85,256 38,409l-466 1578c-21,69 -65,131 -131,189 -66,57 -159,86 -278,86 72,13 134,60 185,141 51,81 51,204 0,370l-498 1694 -965 0 537 -1821c12,-39 13,-75 3,-109 -11,-34 -46,-51 -106,-51l-319 0 -582 1981zm1112 -2665c47,0 91,-12 131,-35 41,-24 72,-71 93,-144l256 -863c38,-127 -11,-191 -147,-191l-301 0 -364 1233 332 0z"/>
   <path class="fil2" d="M11921 1362c42,-149 -17,-223 -179,-223l-1879 0 588 -927 2090 0c243,0 414,73 514,217 100,145 118,326 54,544l-1508 5118c-38,137 -95,250 -169,339 -75,90 -159,161 -252,214 -94,53 -195,91 -304,112 -109,21 -218,32 -329,32l-1828 0 1611 -5496 1073 0 -1348 4569 383 0c107,0 177,-55 211,-166l1272 -4333zm1176 780l1827 0 -249 837 -856 0 -301 1023 838 0 -243 824 -837 0 -320 1080 888 0 -319 882 -1796 0 1368 -4646zm2032 0l965 0 -371 2186 882 -2186 991 0 -2039 4646 -1042 0 614 -4646z"/>
  </g>
 </g>
</svg>
